<?xml version="1.0" ?><!DOCTYPE svg  PUBLIC '-//W3C//DTD SVG 1.1//EN'  'http://www.w3.org/Graphics/SVG/1.1/DTD/svg11.dtd'><svg enable-background="new 0 0 512 512" height="512px" id="Layer_1" version="1.1" viewBox="0 0 512 512" width="512px" xml:space="preserve" xmlns="http://www.w3.org/2000/svg" xmlns:xlink="http://www.w3.org/1999/xlink"><g><path d="M464,368v48c0,8.844-7.164,16-16,16h-16v-80h16C456.836,352,464,359.156,464,368z M448,256h-16v80h16   c8.836,0,16-7.156,16-16v-48C464,263.156,456.836,256,448,256z M448,160h-16v80h16c8.836,0,16-7.156,16-16v-48   C464,167.156,456.836,160,448,160z M368,96h-80v205.859c0,0.858-0.523,1.641-1.328,1.983c-0.805,0.328-1.727,0.142-2.344-0.469   L224,240l-60.328,63.375c-0.617,0.609-1.539,0.797-2.344,0.469c-0.805-0.344-1.328-1.125-1.328-1.984V96H88c-4.422,0-8-3.578-8-8   s3.578-8,8-8h264c8.844,0,16-7.156,16-16s-7.156-16-16-16H80c-26.5,0-48,21.484-48,48v336c0,26.516,21.5,48,48,48h288   c26.5,0,48-21.484,48-48V144C416,117.484,394.5,96,368,96z" fill="#4D4D4D"/></g></svg>